<svg width="56" height="56" viewBox="0 0 56 56" fill="none" xmlns="http://www.w3.org/2000/svg">
<circle cx="28" cy="28" r="28" fill="#5D29A6"/>
<g clip-path="url(#clip0_615_13364)">
<path d="M23.3903 37.8982L22.2812 38.704C21.1798 39.5042 19.6979 38.4275 20.1186 37.1328L21.9869 31.3827C22.175 30.8037 21.9689 30.1693 21.4764 29.8115L16.5851 26.2578C15.4837 25.4576 16.0497 23.7155 17.4111 23.7155H23.4571C24.0659 23.7155 24.6055 23.3234 24.7936 22.7444L26.6619 16.9944C27.0826 15.6996 28.9144 15.6996 29.3351 16.9944L31.2034 22.7444C31.3915 23.3234 31.9311 23.7155 32.5399 23.7155H38.5859C39.9473 23.7155 40.5133 25.4576 39.4119 26.2578L34.5206 29.8115C34.0281 30.1693 33.822 30.8037 34.0101 31.3827L35.8784 37.1328C36.2991 38.4275 34.8172 39.5042 33.7158 38.704L28.8245 35.1502C28.332 34.7924 27.665 34.7924 27.1725 35.1502L26.8464 35.3871L25.9329 36.0509" stroke="white" stroke-width="1.5" stroke-linecap="round"/>
</g>
<defs>
<clipPath id="clip0_615_13364">
<rect width="28" height="28" fill="white" transform="translate(14 14)"/>
</clipPath>
</defs>
</svg>
