<svg width="25" height="24" viewBox="0 0 25 24" fill="none" xmlns="http://www.w3.org/2000/svg">
<path fill-rule="evenodd" clip-rule="evenodd" d="M22.2489 11.9995L22.8714 11.6875V11.6845L22.8669 11.68L22.8579 11.662L22.8264 11.602L22.7064 11.386C22.5599 11.1334 22.4043 10.8863 22.2399 10.645C21.691 9.83946 21.0602 9.09297 20.3574 8.41753C18.6684 6.79753 16.0689 5.14453 12.4989 5.14453C8.93185 5.14453 6.33085 6.79603 4.64186 8.41753C3.93905 9.09297 3.30817 9.83946 2.75935 10.645C2.53666 10.9736 2.33041 11.313 2.14135 11.662L2.13235 11.68L2.12935 11.6845V11.686C2.12935 11.686 2.12785 11.6875 2.75035 11.9995L2.12785 11.686C2.07973 11.7833 2.05469 11.8903 2.05469 11.9988C2.05469 12.1073 2.07973 12.2143 2.12785 12.3115L2.12635 12.3145L2.13085 12.319L2.13985 12.337C2.18663 12.4308 2.23666 12.5228 2.28985 12.613C2.93575 13.7041 3.72588 14.7032 4.63885 15.583C6.32935 17.203 8.92885 18.853 12.4989 18.853C16.0674 18.853 18.6684 17.203 20.3589 15.5815C21.0604 14.9053 21.6907 14.1589 22.2399 13.354C22.4502 13.0444 22.6459 12.725 22.8264 12.397L22.8579 12.337L22.8669 12.319L22.8699 12.3145V12.313C22.8699 12.313 22.8714 12.3115 22.2489 11.9995ZM22.2489 11.9995L22.8714 12.313C22.9195 12.2158 22.9445 12.1088 22.9445 12.0003C22.9445 11.8918 22.9195 11.7848 22.8714 11.6875L22.2489 11.9995ZM12.4089 9.69553C11.7978 9.69553 11.2118 9.93827 10.7797 10.3704C10.3476 10.8024 10.1049 11.3885 10.1049 11.9995C10.1049 12.6106 10.3476 13.1966 10.7797 13.6287C11.2118 14.0608 11.7978 14.3035 12.4089 14.3035C13.0199 14.3035 13.6059 14.0608 14.038 13.6287C14.4701 13.1966 14.7129 12.6106 14.7129 11.9995C14.7129 11.3885 14.4701 10.8024 14.038 10.3704C13.6059 9.93827 13.0199 9.69553 12.4089 9.69553ZM8.71585 11.9995C8.71585 11.0193 9.10525 10.0792 9.79839 9.38607C10.4915 8.69293 11.4316 8.30353 12.4119 8.30353C13.3921 8.30353 14.3322 8.69293 15.0253 9.38607C15.7185 10.0792 16.1079 11.0193 16.1079 11.9995C16.1079 12.9798 15.7185 13.9199 15.0253 14.613C14.3322 15.3061 13.3921 15.6955 12.4119 15.6955C11.4316 15.6955 10.4915 15.3061 9.79839 14.613C9.10525 13.9199 8.71586 12.9798 8.71585 11.9995Z" fill="white"/>
</svg>
