<svg width="34" height="24" viewBox="0 0 34 24" fill="none" xmlns="http://www.w3.org/2000/svg">
<path d="M13.2075 17.6896H10.915C10.5435 17.6896 10.1862 17.8326 9.91721 18.0888L6.26225 21.5708C6.14713 21.6805 5.95669 21.5989 5.95669 21.4399V19.1362C5.95669 18.3373 5.30902 17.6896 4.51007 17.6896H4.16164C2.66361 17.6896 1.44922 16.4752 1.44922 14.9772V3.71291C1.44922 2.21488 2.66361 1.00049 4.16164 1.00049H21.874C23.372 1.00049 24.5864 2.21488 24.5864 3.71291V4.41417" stroke="white" stroke-width="1.44663" stroke-linecap="round"/>
<path d="M27.4302 21.9625L27.784 22.5934L27.4302 21.9625ZM30.5655 18.8272L31.1964 19.181L30.5655 18.8272ZM32.5508 21.9625L33.0766 21.4659C33.2825 21.6838 33.3325 22.0061 33.2025 22.2762C33.0725 22.5464 32.7894 22.7083 32.4906 22.6834L32.5508 21.9625ZM15.2927 14.8446H16.016C16.016 18.949 19.3432 22.2762 23.4476 22.2762V22.9995V23.7228C18.5443 23.7228 14.5694 19.7479 14.5694 14.8446H15.2927ZM31.6025 14.8446H30.8792C30.8792 10.7403 27.5519 7.41301 23.4476 7.41301V6.6897V5.96638C28.3509 5.96638 32.3258 9.9413 32.3258 14.8446H31.6025ZM23.4476 6.6897V7.41301C19.3432 7.41301 16.016 10.7403 16.016 14.8446H15.2927H14.5694C14.5694 9.9413 18.5443 5.96638 23.4476 5.96638V6.6897ZM23.4476 22.9995V22.2762C24.7669 22.2762 26.0039 21.933 27.0765 21.3316L27.4302 21.9625L27.784 22.5934C26.5009 23.3129 25.021 23.7228 23.4476 23.7228V22.9995ZM30.5655 18.8272L29.9346 18.4735C30.536 17.4009 30.8792 16.1639 30.8792 14.8446H31.6025H32.3258C32.3258 16.4181 31.9159 17.8979 31.1964 19.181L30.5655 18.8272ZM27.4302 21.9625L27.0765 21.3316C27.2887 21.2126 27.5515 21.1653 27.7424 21.1391C27.9621 21.109 28.2179 21.0919 28.4855 21.0827C29.0226 21.0644 29.6621 21.0768 30.2673 21.1003C30.8752 21.1239 31.4605 21.1592 31.893 21.1886C32.1095 21.2033 32.2883 21.2165 32.4133 21.2261C32.4758 21.2309 32.5248 21.2348 32.5584 21.2375C32.5752 21.2388 32.5882 21.2399 32.597 21.2406C32.6014 21.241 32.6048 21.2412 32.6072 21.2414C32.6083 21.2415 32.6092 21.2416 32.6099 21.2416C32.6102 21.2417 32.6104 21.2417 32.6106 21.2417C32.6107 21.2417 32.6108 21.2417 32.6108 21.2417C32.6109 21.2417 32.6109 21.2417 32.5508 21.9625C32.4906 22.6834 32.4906 22.6834 32.4906 22.6834C32.4906 22.6834 32.4906 22.6834 32.4906 22.6833C32.4905 22.6833 32.4903 22.6833 32.4901 22.6833C32.4896 22.6833 32.4889 22.6832 32.4879 22.6831C32.486 22.683 32.483 22.6827 32.4789 22.6824C32.4709 22.6817 32.4587 22.6807 32.4427 22.6795C32.4107 22.6769 32.3633 22.6731 32.3027 22.6685C32.1813 22.6592 32.0067 22.6463 31.795 22.6319C31.371 22.6031 30.8006 22.5687 30.2112 22.5458C29.6192 22.5228 29.0201 22.512 28.5348 22.5285C28.2913 22.5368 28.09 22.5516 27.939 22.5724C27.7591 22.597 27.7376 22.6195 27.784 22.5934L27.4302 21.9625ZM32.5508 21.9625C32.025 22.4592 32.0249 22.4592 32.0248 22.4591C32.0248 22.459 32.0247 22.459 32.0246 22.4589C32.0245 22.4587 32.0243 22.4586 32.0241 22.4583C32.0237 22.4579 32.0231 22.4573 32.0224 22.4566C32.021 22.4551 32.0191 22.453 32.0166 22.4503C32.0116 22.445 32.0044 22.4373 31.9952 22.4275C31.9769 22.4078 31.9506 22.3794 31.9175 22.3433C31.8513 22.2711 31.7577 22.1679 31.6469 22.0423C31.4262 21.792 31.1328 21.448 30.8489 21.0797C30.5695 20.7172 30.2795 20.306 30.0809 19.9251C29.9826 19.7365 29.8898 19.5237 29.8409 19.3078C29.7957 19.108 29.7605 18.784 29.9346 18.4735L30.5655 18.8272L31.1964 19.181C31.2796 19.0326 31.2383 18.9282 31.2519 18.9885C31.2619 19.0327 31.293 19.1207 31.3637 19.2564C31.5033 19.5242 31.7323 19.8562 31.9946 20.1965C32.2525 20.531 32.5236 20.8492 32.7319 21.0854C32.8357 21.2031 32.9228 21.2992 32.9837 21.3656C33.0141 21.3987 33.0378 21.4243 33.0537 21.4414C33.0617 21.45 33.0677 21.4564 33.0715 21.4605C33.0735 21.4625 33.0749 21.464 33.0757 21.4649C33.0762 21.4654 33.0764 21.4657 33.0766 21.4658C33.0767 21.4659 33.0767 21.466 33.0767 21.466C33.0767 21.466 33.0767 21.466 33.0767 21.466C33.0767 21.4659 33.0766 21.4659 32.5508 21.9625Z" fill="#F2B035"/>
</svg>
