<svg width="21" height="20" viewBox="0 0 21 20" fill="none" xmlns="http://www.w3.org/2000/svg">
<circle cx="6.59346" cy="4.12275" r="2.40791" stroke="#5D29A6" stroke-width="1.07143"/>
<path d="M7.91917 18.9062C8.20283 18.8221 8.36461 18.524 8.28051 18.2403C8.19641 17.9566 7.89829 17.7948 7.61462 17.8789L7.91917 18.9062ZM10.5576 11.9614H10.0218V14.4883H10.5576H11.0933V11.9614H10.5576ZM2.63477 14.5863H3.17048V11.9614H2.63477H2.09905V14.5863H2.63477ZM7.74308 18.3996L7.89535 18.9132L7.91917 18.9062L7.76689 18.3926L7.61462 17.8789L7.59081 17.886L7.74308 18.3996ZM2.63477 14.5863H2.09905C2.09905 17.0789 4.11964 19.0994 6.61217 19.0994V18.5637V18.028C4.71137 18.028 3.17048 16.4871 3.17048 14.5863H2.63477ZM6.61217 18.5637V19.0994C7.04663 19.0994 7.47881 19.0367 7.89535 18.9132L7.74308 18.3996L7.59081 17.886C7.27313 17.9802 6.94351 18.028 6.61217 18.028V18.5637ZM10.5576 14.4883H10.0218C10.0218 15.5873 9.53963 16.6308 8.70273 17.3431L9.04993 17.751L9.39712 18.159C10.4732 17.2432 11.0933 15.9014 11.0933 14.4883H10.5576ZM6.59616 8V8.53571C8.48812 8.53571 10.0218 10.0694 10.0218 11.9614H10.5576H11.0933C11.0933 9.47771 9.07985 7.46429 6.59616 7.46429V8ZM6.59616 8V7.46429C4.11248 7.46429 2.09905 9.47771 2.09905 11.9614H2.63477H3.17048C3.17048 10.0694 4.70421 8.53571 6.59616 8.53571V8Z" fill="#5D29A6"/>
<circle cx="2.40791" cy="2.40791" r="2.40791" transform="matrix(-1 0 0 1 16.334 1.71484)" stroke="#5D29A6" stroke-width="1.07143"/>
<path d="M12.6043 18.9062C12.3206 18.8221 12.1588 18.524 12.2429 18.2403C12.327 17.9566 12.6252 17.7948 12.9088 17.8789L12.6043 18.9062ZM9.96587 11.9614H10.5016V14.4883H9.96587H9.43016V11.9614H9.96587ZM17.8887 14.5863H17.353V11.9614H17.8887H18.4244V14.5863H17.8887ZM12.7804 18.3996L12.6281 18.9132L12.6043 18.9062L12.7565 18.3926L12.9088 17.8789L12.9326 17.886L12.7804 18.3996ZM17.8887 14.5863H18.4244C18.4244 17.0789 16.4038 19.0994 13.9113 19.0994V18.5637V18.028C15.8121 18.028 17.353 16.4871 17.353 14.5863H17.8887ZM13.9113 18.5637V19.0994C13.4768 19.0994 13.0446 19.0367 12.6281 18.9132L12.7804 18.3996L12.9326 17.886C13.2503 17.9802 13.5799 18.028 13.9113 18.028V18.5637ZM9.96587 14.4883H10.5016C10.5016 15.5873 10.9838 16.6308 11.8207 17.3431L11.4735 17.751L11.1263 18.159C10.0502 17.2432 9.43016 15.9014 9.43016 14.4883H9.96587ZM13.9273 8V8.53571C12.0353 8.53571 10.5016 10.0694 10.5016 11.9614H9.96587H9.43016C9.43016 9.47771 11.4436 7.46429 13.9273 7.46429V8ZM13.9273 8V7.46429C16.411 7.46429 18.4244 9.47771 18.4244 11.9614H17.8887H17.353C17.353 10.0694 15.8192 8.53571 13.9273 8.53571V8Z" fill="#5D29A6"/>
</svg>
