<svg width="26" height="28" viewBox="0 0 26 28" fill="none" xmlns="http://www.w3.org/2000/svg">
<path d="M18.1632 14.1179V14.1179C17.2211 12.2839 15.3325 11.1309 13.2708 11.1309H12.629C10.6177 11.1309 8.78846 12.2955 7.9375 14.1179V14.1179" stroke="#959BA0" stroke-width="1.63835"/>
<circle cx="13.0485" cy="5.01334" r="3.44693" stroke="#959BA0" stroke-width="1.63835"/>
<circle cx="5.30326" cy="9.2017" r="2.61771" stroke="#959BA0" stroke-width="1.63835"/>
<path d="M6.81215 25.5014C7.2459 25.3728 7.49328 24.917 7.36469 24.4832C7.23609 24.0495 6.78022 23.8021 6.34646 23.9307L6.81215 25.5014ZM6.55341 24.7237L6.32057 23.9383L6.55341 24.7237ZM9.61313 17.7245H8.79396V20.4716H9.61313H10.4323V17.7245H9.61313ZM1 20.5782H1.81917V17.7245H1H0.180827V20.5782H1ZM6.55341 24.7237L6.78626 25.5091L6.81215 25.5014L6.5793 24.7161L6.34646 23.9307L6.32057 23.9383L6.55341 24.7237ZM1 20.5782H0.180827C0.180827 23.4187 2.48349 25.7213 5.32396 25.7213V24.9021V24.083C3.38832 24.083 1.81917 22.5138 1.81917 20.5782H1ZM5.32396 24.9021V25.7213C5.81906 25.7213 6.31157 25.6498 6.78626 25.5091L6.55341 24.7237L6.32057 23.9383C5.99706 24.0343 5.66139 24.083 5.32396 24.083V24.9021ZM9.61313 20.4716H8.79396C8.79396 21.5969 8.30018 22.6655 7.44322 23.3948L7.97413 24.0186L8.50503 24.6425C9.72777 23.6019 10.4323 22.0772 10.4323 20.4716H9.61313ZM5.30656 13.418V14.2371C7.2326 14.2371 8.79396 15.7985 8.79396 17.7245H9.61313H10.4323C10.4323 14.8937 8.13743 12.5988 5.30656 12.5988V13.418ZM5.30656 13.418V12.5988C2.4757 12.5988 0.180827 14.8937 0.180827 17.7245H1H1.81917C1.81917 15.7985 3.38053 14.2371 5.30656 14.2371V13.418Z" fill="#959BA0"/>
<circle cx="2.61771" cy="2.61771" r="2.61771" transform="matrix(-1 0 0 1 23.4023 6.58398)" stroke="#959BA0" stroke-width="1.63835"/>
<path d="M19.2777 25.5014C18.8439 25.3728 18.5966 24.917 18.7252 24.4832C18.8538 24.0495 19.3096 23.8021 19.7434 23.9307L19.2777 25.5014ZM19.5364 24.7237L19.7693 23.9383L19.5364 24.7237ZM16.4767 17.7245H17.2959V20.4716H16.4767H15.6575V17.7245H16.4767ZM25.0898 20.5782H24.2707V17.7245H25.0898H25.909V20.5782H25.0898ZM19.5364 24.7237L19.3036 25.5091L19.2777 25.5014L19.5105 24.7161L19.7434 23.9307L19.7693 23.9383L19.5364 24.7237ZM25.0898 20.5782H25.909C25.909 23.4187 23.6064 25.7213 20.7659 25.7213V24.9021V24.083C22.7015 24.083 24.2707 22.5138 24.2707 20.5782H25.0898ZM20.7659 24.9021V25.7213C20.2708 25.7213 19.7783 25.6498 19.3036 25.5091L19.5364 24.7237L19.7693 23.9383C20.0928 24.0343 20.4285 24.083 20.7659 24.083V24.9021ZM16.4767 20.4716H17.2959C17.2959 21.5969 17.7897 22.6655 18.6466 23.3948L18.1157 24.0186L17.5848 24.6425C16.3621 23.6019 15.6575 22.0772 15.6575 20.4716H16.4767ZM20.7833 13.418V14.2371C18.8572 14.2371 17.2959 15.7985 17.2959 17.7245H16.4767H15.6575C15.6575 14.8937 17.9524 12.5988 20.7833 12.5988V13.418ZM20.7833 13.418V12.5988C23.6141 12.5988 25.909 14.8937 25.909 17.7245H25.0898H24.2707C24.2707 15.7985 22.7093 14.2371 20.7833 14.2371V13.418Z" fill="#959BA0"/>
<path d="M7.41211 16.6328V20.6081C7.41211 23.7279 9.94127 26.2571 13.0612 26.2571V26.2571V26.2571C16.181 26.2571 18.7102 23.7279 18.7102 20.6081V16.6328" stroke="#959BA0" stroke-width="1.63835" stroke-linecap="round"/>
</svg>
