<svg width="21" height="19" viewBox="0 0 21 19" fill="none" xmlns="http://www.w3.org/2000/svg">
<path d="M7.26542 16.6393L5.86662 17.6556C5.2842 18.0788 4.50055 17.5094 4.72302 16.8247L6.33154 11.8742C6.43103 11.568 6.32204 11.2326 6.06157 11.0433L1.85039 7.98371C1.26797 7.56055 1.5673 6.63932 2.28721 6.63932H7.49251C7.81447 6.63932 8.09981 6.43201 8.1993 6.12581L9.80783 1.17527C10.0303 0.490589 10.9989 0.490589 11.2214 1.17527L12.8299 6.12581C12.9294 6.43201 13.2148 6.63932 13.5367 6.63932H18.742C19.4619 6.63932 19.7613 7.56056 19.1788 7.98371L14.9677 11.0433C14.7072 11.2326 14.5982 11.568 14.6977 11.8742L16.3062 16.8247C16.5287 17.5094 15.745 18.0788 15.1626 17.6556L10.9514 14.596C10.691 14.4068 10.3383 14.4068 10.0778 14.596L9.70232 14.8688L9.38025 15.1028" stroke="#F2B035" stroke-width="1.25" stroke-linecap="round"/>
</svg>
