<?xml version="1.0" encoding="UTF-8"?>
<svg id="Layer_2" data-name="Layer 2" xmlns="http://www.w3.org/2000/svg" viewBox="0 0 732.85 120.74">
  <defs>
    <style>
      .cls-1 {
        fill: none;
      }

      .cls-2 {
        fill: #5e3a96;
      }

      .cls-3 {
        fill: #f2b033;
      }
    </style>
  </defs>
  <g id="Layer_1-2" data-name="Layer 1">
    <g>
      <path class="cls-2" d="M0,70.06c0-17.57,10.77-26.42,24.83-26.42,10.2,0,18.14,4.88,21.88,13.83,3.74-8.96,11.68-13.83,21.88-13.83,14.06,0,24.83,8.84,24.83,26.42v49.2h-8.16v-49.2c0-12.58-7.37-18.93-17.23-18.93s-17.23,6.69-17.23,18.93v49.2h-8.16v-49.2c0-12.24-7.26-18.93-17.23-18.93s-17.23,6.35-17.23,18.93v49.2H0v-49.2Z"/>
      <path class="cls-2" d="M106.91,45.12h54.42v7.48h-46.26v25.28h39.68v7.48h-39.68v26.42h46.26v7.48h-54.42V45.12Z"/>
      <path class="cls-2" d="M172.44,74.26c0-18.71,11.11-30.61,31.18-30.61s31.06,11.9,31.06,30.61v45.01h-8.16v-45.01c0-14.29-7.94-23.13-22.9-23.13s-23.01,8.84-23.01,23.13v45.01h-8.16v-45.01Z"/>
      <path class="cls-2" d="M391.37,45.12h32.76c17.46,0,25.17,9.75,25.17,22.9,0,12.24-6.58,20.41-18.71,22.67l21.43,28.57h-9.86l-20.07-28.12h-22.56v28.12h-8.16V45.12ZM424.25,83.66c12.36,0,16.78-6.8,16.78-15.65s-4.42-15.42-16.78-15.42h-24.71v31.06h24.71Z"/>
      <path class="cls-2" d="M462.79,45.12h32.08c17.91,0,25.85,9.98,25.85,23.58s-8.05,23.7-25.85,23.7h-23.92v26.87h-8.16V45.12ZM494.99,84.91c12.81,0,17.46-7.03,17.46-16.21s-4.65-16.1-17.46-16.1h-24.04v32.31h24.04Z"/>
      <path class="cls-2" d="M528.89,75.39c0-19.5,11.34-31.74,31.97-31.74s32.08,12.24,32.08,31.74v43.88h-8.16v-24.94h-47.96v24.94h-7.94v-43.88ZM584.78,86.84v-11.45c0-14.96-8.16-24.26-24.04-24.26s-23.92,9.3-23.92,24.26v11.45h47.96Z"/>
      <path class="cls-2" d="M606.44,45.12h32.76c17.46,0,25.17,9.75,25.17,22.9,0,12.24-6.58,20.41-18.71,22.67l21.43,28.57h-9.86l-20.07-28.12h-22.56v28.12h-8.16V45.12ZM639.32,83.66c12.36,0,16.78-6.8,16.78-15.65s-4.42-15.42-16.78-15.42h-24.71v31.06h24.71Z"/>
      <path class="cls-2" d="M677.87,45.12h8.16v34.69l35.15-34.69h10.54l-37.53,36.62,38.66,37.53h-10.77l-36.05-35.49v35.49h-8.16V45.12Z"/>
      <path class="cls-1" d="M340.46,51.13c-16.39,0-28.31,10.35-30.8,25.19,11.68-6.87,22.45-15.53,32.08-25.16-.42-.01-.85-.03-1.28-.03Z"/>
      <path class="cls-2" d="M361.75,58.73c.96-2.6,1.84-5.23,2.64-7.88-4.33-3.06-9.43-5.25-15.11-6.36-1.74,2.31-3.55,4.58-5.45,6.79,7.1.64,13.22,3.3,17.91,7.45Z"/>
      <path class="cls-2" d="M366.07,52.11c-.62,2.9-1.38,5.78-2.29,8.62,5.05,5.47,7.97,12.92,7.97,21.46,0,17.91-12.81,31.06-31.29,31.06s-31.29-13.15-31.29-31.06c0-.72.03-1.43.07-2.13-2.68,1.51-5.41,2.92-8.18,4.2.98,21.16,17,36.48,39.41,36.48s39.45-16.33,39.45-38.55c0-12.52-5.18-23.17-13.84-30.08Z"/>
      <path class="cls-2" d="M340.46,51.13c.43,0,.85.01,1.28.03,2.23-2.23,4.4-4.52,6.51-6.85-2.49-.43-5.09-.66-7.78-.66-22.7,0-38.84,15.73-39.43,37.32,2.92-1.44,5.8-2.99,8.62-4.65,2.49-14.84,14.41-25.19,30.8-25.19Z"/>
      <path class="cls-2" d="M274.59,52.6h25.17v-7.48h-58.5v7.48h25.17v39.08c2.75-.36,5.47-.82,8.16-1.4v-37.68Z"/>
      <path class="cls-2" d="M266.43,93.04v26.23h8.16v-27.02c-2.7.39-5.42.66-8.16.8Z"/>
      <polygon class="cls-3" points="351.25 8.76 364.27 11.53 370.93 0 372.32 13.24 385.34 16.01 373.18 21.42 374.57 34.66 365.67 24.77 353.5 30.18 360.16 18.65 351.25 8.76"/>
      <path class="cls-3" d="M357.94,32.72c-23.13,30.25-59.68,57.97-98.96,59.58-5.68.15-11.35-.33-16.89-1.33,5.63.34,11.23.42,16.8-.14,38.98-4.13,72.85-30.47,99.06-58.11h0Z"/>
      <path class="cls-3" d="M368.3,31.03c-3.06,29.47-18.75,60.01-44.7,75.45,23.32-18.97,37.35-46.72,44.7-75.45h0Z"/>
    </g>
  </g>
</svg>